<svg xmlns="http://www.w3.org/2000/svg" width="19" height="20" viewBox="0 0 19 20">
    <path fill="#FFF" fill-rule="evenodd" d="M2.786 3.618C4.643 1.798 6.881.888 9.5.888c2.619 0 4.857.91 6.714 2.73C18.07 5.438 19 7.631 19 10.197s-.929 4.759-2.786 6.579c-1.857 1.82-4.095 2.73-6.714 2.73-2.619 0-4.857-.91-6.714-2.73C.93 14.956 0 12.763 0 10.197s.929-4.759 2.786-6.579zm8.587 14.903c.06 0 .121-.014.182-.044a.412.412 0 0 1 .183-.045l1.096-2.864-.913-1.746v-.045H7.079l-.913 1.746 1.142 2.909c.03 0 .083.015.16.045.076.03.129.044.16.044a7.3 7.3 0 0 0 1.735.224c.64 0 1.31-.074 2.01-.224zM1.873 6.08C1.203 7.273.837 8.6.776 10.063L2.74 8.407 1.873 6.08zm4.613-3.894C4.75 2.842 3.38 3.872 2.375 5.274L3.38 8.138l.228.09 2.238 1.03L9.09 6.571V3.976l-2.603-1.79zm6.165 7.608L9.454 7.198 6.303 9.794v.045l.822 3.222h4.75l.822-3.222-.046-.045zm5.573.269c-.061-1.492-.427-2.835-1.097-4.028l-.867 2.372 1.964 1.656zm-1.599-4.789c-1.066-1.462-2.436-2.491-4.11-3.088l-2.65 1.79v2.596l3.243 2.685 2.467-1.074 1.05-2.909zM.822 10.958a7.993 7.993 0 0 0 1.507 4.117l3.197.045.96-1.745-.914-3.446-.046-.045-2.238-.985-2.466 2.059zm12.652 4.162l3.197-.045a7.993 7.993 0 0 0 1.507-4.117l-2.466-2.059-2.284 1.03-.914 3.446.96 1.745zM9.454 3.35l2.147-1.433A8.104 8.104 0 0 0 9.5 1.65c-.73 0-1.446.09-2.147.268L9.454 3.35zM5.39 15.835l-2.466-.045c.974 1.104 2.116 1.895 3.426 2.372l-.914-2.237-.046-.09zm7.262 2.327c1.31-.477 2.452-1.268 3.426-2.372l-2.558.045-.091.134-.777 2.193z"/>
</svg>
