<svg xmlns="http://www.w3.org/2000/svg" width="15" height="16" viewBox="0 0 15 16">
    <path fill="#000" fill-rule="evenodd" d="M10.906 0H4.094c-.565 0-1.098.114-1.6.34-.49.228-.922.54-1.295.938a4.407 4.407 0 0 0-.88 1.397A4.422 4.422 0 0 0 0 4.362v7.276c0 .59.107 1.153.32 1.687a4.226 4.226 0 0 0 2.175 2.317A3.674 3.674 0 0 0 4.094 16h6.812c.565 0 1.098-.12 1.6-.358a4.226 4.226 0 0 0 2.174-2.317c.213-.534.32-1.096.32-1.687V4.362c0-.602-.107-1.164-.32-1.687-.213-.534-.506-1-.88-1.397a4.159 4.159 0 0 0-1.295-.937A3.827 3.827 0 0 0 10.906 0zm2.735 11.638c0 .795-.267 1.477-.8 2.045-.533.568-1.178.852-1.935.852H4.094c-.757 0-1.402-.284-1.935-.852a2.883 2.883 0 0 1-.8-2.045V4.362c0-.795.267-1.48.8-2.053.533-.574 1.178-.86 1.935-.86h6.812c.757 0 1.402.286 1.935.86.533.574.8 1.258.8 2.053v7.276zM8.044 4.362a2.606 2.606 0 0 0-1.024 0c-.458.068-.88.233-1.263.494-.384.262-.704.58-.96.954a3.909 3.909 0 0 0-.64 2.693 3.686 3.686 0 0 0 1.36 2.402c.31.216.634.392.976.528.34.137.698.205 1.071.205.075 0 .157-.003.248-.009a.44.44 0 0 0 .232-.076 3.188 3.188 0 0 0 1.255-.477c.39-.25.722-.574 1-.972.277-.397.466-.826.567-1.286.101-.46.115-.929.04-1.406a3.51 3.51 0 0 0-.935-2.036 3.231 3.231 0 0 0-1.927-1.014zM9.21 9.235c-.17.216-.373.406-.608.571-.234.165-.49.264-.767.298-.544.069-1.048-.07-1.511-.417a1.994 1.994 0 0 1-.808-1.406c-.096-.58.03-1.116.376-1.61s.791-.781 1.335-.86h.544c.448.079.826.283 1.135.613.31.33.501.733.576 1.21.064.295.067.582.008.86a2.422 2.422 0 0 1-.28.741zm1.567-5.742a.61.61 0 0 0-.16.222.777.777 0 0 0-.048.29c0 .101.016.192.048.272a.78.78 0 0 0 .16.238.71.71 0 0 0 .48.204.61.61 0 0 0 .256-.05.876.876 0 0 0 .224-.154.839.839 0 0 0 .144-.264.777.777 0 0 0 0-.537.71.71 0 0 0-.144-.22.64.64 0 0 0-.48-.222.64.64 0 0 0-.48.221z"/>
</svg>
