<svg xmlns="http://www.w3.org/2000/svg" width="17" height="14" viewBox="0 0 17 14">
    <path fill="#000" fill-rule="evenodd" d="M15.268 3.49v.458c0 1.17-.217 2.351-.65 3.545a10.192 10.192 0 0 1-1.904 3.235c-.836.963-1.87 1.749-3.104 2.358-1.233.61-2.656.914-4.268.914-.987 0-1.931-.14-2.834-.42C1.606 13.3.77 12.91 0 12.41l.406.036c.138.013.28.019.424.019.818 0 1.594-.134 2.328-.402a7.186 7.186 0 0 0 2.003-1.115 3.34 3.34 0 0 1-2.03-.704A3.413 3.413 0 0 1 1.913 8.5c.096.024.201.04.316.045.114.006.225.01.334.01.156 0 .312-.01.469-.028.156-.018.307-.046.451-.082a3.48 3.48 0 0 1-1.994-1.225 3.418 3.418 0 0 1-.803-2.248v-.027-.01c.228.123.478.223.749.302.27.08.544.125.82.137a3.516 3.516 0 0 1-1.127-1.252 3.471 3.471 0 0 1-.424-1.69c0-.33.042-.643.126-.941.084-.299.205-.576.361-.832.421.536.9 1.02 1.435 1.453.535.433 1.107.81 1.714 1.133A9.653 9.653 0 0 0 8.373 4.35a2.353 2.353 0 0 1-.072-.402 4.495 4.495 0 0 1-.018-.402c0-.488.09-.948.271-1.38.18-.433.43-.807.75-1.124.318-.317.688-.57 1.109-.759A3.27 3.27 0 0 1 11.766 0c.506 0 .978.1 1.417.302.44.2.815.472 1.128.813a6.266 6.266 0 0 0 1.155-.33 7.82 7.82 0 0 0 1.065-.51 3.573 3.573 0 0 1-1.534 1.936c.349-.036.692-.1 1.028-.191.337-.092.662-.21.975-.357a6.856 6.856 0 0 1-1.732 1.828z"/>
</svg>
